<?xml version="1.0" standalone="no"?>
<!DOCTYPE svg PUBLIC "-//W3C//DTD SVG 20010904//EN"
 "http://www.w3.org/TR/2001/REC-SVG-20010904/DTD/svg10.dtd">
<svg version="1.0" xmlns="http://www.w3.org/2000/svg"
 width="400.000000pt" height="300.000000pt" viewBox="0 0 400.000000 300.000000"
 preserveAspectRatio="xMidYMid meet">

<g transform="translate(0.000000,300.000000) scale(0.100000,-0.100000)"
fill="#000000" stroke="none">
<path d="M1865 2609 c-49 -22 -182 -80 -296 -129 -113 -49 -230 -100 -260
-113 -29 -14 -97 -43 -149 -66 -52 -22 -140 -60 -195 -84 l-100 -44 -3 -479
-2 -480 162 -72 c222 -97 776 -341 869 -381 l77 -34 555 243 554 243 -1 475
-1 476 -170 76 c-93 41 -186 82 -205 89 -19 8 -66 28 -105 46 -38 17 -97 43
-130 58 -33 14 -158 69 -277 121 -119 53 -220 96 -225 95 -4 0 -48 -18 -98
-40z m476 -150 c206 -89 447 -193 537 -231 l162 -70 -2 -466 -3 -466 -210 -91
c-115 -51 -357 -155 -536 -233 l-325 -141 -505 220 c-277 122 -519 227 -537
235 l-32 14 0 460 c0 427 1 461 18 470 28 17 1036 458 1048 459 7 1 180 -72
385 -160z"/>
<path d="M1480 2315 l-465 -204 -2 -418 -3 -418 475 -207 476 -207 480 207
480 207 -1 415 c0 228 -4 417 -8 421 -14 13 -917 400 -942 405 -17 2 -175 -62
-490 -201z m952 -250 c26 -82 48 -156 48 -162 0 -10 -111 -13 -520 -13 -286 0
-520 3 -520 8 0 4 21 78 47 165 l47 157 425 -2 425 -3 48 -150z m-238 -307
l-46 -92 11 -81 c6 -44 11 -90 11 -102 l0 -23 -211 0 -212 0 7 48 c22 155 21
162 -23 250 -22 45 -41 84 -41 87 0 3 124 5 275 5 l275 0 -46 -92z m-581 -53
l77 -37 0 -108 0 -108 95 -68 c87 -62 95 -70 95 -100 0 -30 -8 -38 -94 -99
l-94 -65 -78 0 -79 0 -190 252 c-104 139 -189 254 -188 257 0 2 63 39 140 81
l138 77 50 -22 c28 -13 85 -39 128 -60z m1007 8 c77 -43 139 -82 139 -88 0 -5
-84 -120 -188 -255 l-188 -245 -77 -3 -77 -3 -95 68 c-87 62 -95 70 -92 98 3
25 19 42 96 99 l92 68 0 110 0 109 123 58 c67 33 123 60 125 60 2 1 66 -34
142 -76z"/>
<path d="M980 737 c-69 -16 -90 -28 -128 -71 -34 -39 -47 -87 -39 -146 8 -63
41 -106 105 -137 50 -24 68 -28 152 -28 79 0 102 4 137 23 56 29 59 37 22 63
-31 22 -33 22 -78 5 -58 -20 -94 -20 -137 0 -71 34 -86 121 -31 180 27 30 40
36 87 40 46 5 63 2 102 -20 l47 -25 26 30 c30 36 26 45 -30 70 -55 24 -166 32
-235 16z"/>
<path d="M1705 641 c-84 -22 -127 -65 -129 -129 -1 -64 20 -99 80 -128 48 -23
63 -26 128 -22 117 8 178 56 180 142 1 53 -24 93 -75 118 -41 21 -140 31 -184
19z m125 -81 c13 -13 20 -33 20 -58 0 -51 -28 -77 -81 -76 -53 2 -79 26 -79
76 0 51 27 78 80 78 27 0 47 -7 60 -20z"/>
<path d="M2213 640 c-18 -4 -40 -13 -48 -20 -12 -10 -15 -10 -15 4 0 13 -11
16 -55 16 l-55 0 -1 -102 c0 -57 -2 -118 -3 -135 l-4 -33 59 0 59 0 0 88 c0
100 12 122 66 122 47 0 54 -15 54 -117 l0 -93 55 0 55 0 0 108 c0 123 -9 145
-68 162 -42 11 -53 11 -99 0z"/>
<path d="M2579 641 c-49 -10 -103 -45 -117 -76 -7 -14 -12 -46 -12 -71 0 -39
5 -51 33 -79 76 -76 245 -75 319 2 29 30 33 41 33 88 0 58 -22 92 -77 121 -33
17 -130 26 -179 15z m126 -81 c22 -25 25 -81 5 -105 -23 -28 -59 -37 -97 -24
-55 18 -70 74 -32 123 27 34 96 37 124 6z"/>
<path d="M2985 639 c-71 -17 -102 -68 -75 -119 7 -12 37 -28 80 -41 74 -22 91
-35 69 -51 -15 -10 -113 -5 -141 7 -15 6 -18 2 -18 -28 0 -33 3 -37 35 -43 51
-9 155 0 190 17 16 7 36 26 45 42 13 24 13 30 0 55 -12 21 -32 32 -88 50 -75
25 -93 46 -47 58 24 6 79 0 111 -13 10 -4 14 3 14 25 0 17 -4 33 -9 36 -18 12
-127 15 -166 5z"/>
<path d="M1310 505 l0 -135 54 0 54 0 3 79 c5 98 21 121 86 121 43 0 43 0 43
35 0 34 -1 35 -38 35 -21 0 -47 -7 -58 -15 -25 -19 -34 -19 -34 0 0 12 -13 15
-55 15 l-55 0 0 -135z"/>
</g>
</svg>
