<?xml version="1.0" standalone="no"?>
<!DOCTYPE svg PUBLIC "-//W3C//DTD SVG 20010904//EN"
 "http://www.w3.org/TR/2001/REC-SVG-20010904/DTD/svg10.dtd">
<svg version="1.0" xmlns="http://www.w3.org/2000/svg"
 width="938.000000pt" height="313.000000pt" viewBox="0 0 938.000000 313.000000"
 preserveAspectRatio="xMidYMid meet">

<g transform="translate(0.000000,600.000000) scale(0.100000,-0.100000)"
fill="#000000" stroke="none">
<path d="M2934 5291 c-11 -3 -66 -33 -123 -66 -57 -33 -146 -85 -199 -116 -54
-31 -122 -70 -152 -87 -30 -17 -82 -46 -115 -66 -33 -19 -80 -47 -105 -61 -25
-15 -103 -60 -175 -102 -71 -42 -170 -99 -220 -126 -49 -28 -91 -55 -93 -59
-2 -4 -8 -8 -13 -8 -5 0 -40 -18 -77 -39 -37 -21 -137 -79 -222 -128 -85 -49
-155 -94 -154 -101 1 -7 2 -438 3 -959 l1 -948 123 -71 c107 -62 1389 -814
1490 -874 20 -12 45 -20 55 -18 10 3 209 117 442 253 234 137 450 263 480 280
109 62 666 389 700 410 l35 22 3 929 c3 622 0 938 -7 956 -6 18 -34 41 -83 69
-40 23 -101 59 -135 80 -34 22 -66 39 -69 39 -4 0 -15 6 -23 14 -9 7 -41 27
-71 43 -30 16 -73 41 -95 55 -22 13 -69 40 -105 58 -36 19 -78 44 -95 55 -16
12 -43 27 -60 35 -16 8 -39 22 -50 31 -18 14 -68 43 -235 136 -25 14 -49 29
-54 34 -6 5 -16 9 -23 9 -8 0 -24 9 -36 21 -12 11 -38 28 -57 36 -19 9 -48 26
-65 37 -16 12 -50 32 -75 45 -25 14 -56 33 -69 43 -13 10 -29 18 -35 18 -6 0
-34 16 -61 36 -74 53 -157 92 -181 85z m265 -192 c135 -78 406 -234 601 -347
195 -112 446 -257 557 -321 l203 -116 0 -927 0 -927 -27 -19 c-16 -10 -206
-121 -423 -247 -217 -125 -462 -267 -545 -315 -193 -112 -528 -306 -580 -335
l-40 -23 -155 90 c-280 163 -771 449 -988 575 -116 67 -267 156 -335 196
l-122 73 -3 929 -2 930 97 56 c54 31 197 113 318 184 491 286 701 409 930 543
132 77 246 141 254 141 8 1 125 -63 260 -140z"/>
<path d="M2770 4951 c-91 -54 -406 -238 -700 -409 -294 -171 -541 -316 -547
-322 -10 -8 -13 -189 -13 -838 l0 -828 148 -86 c81 -47 327 -191 547 -319 220
-128 476 -276 568 -330 l168 -99 725 417 724 417 0 831 0 831 -122 71 c-726
422 -1322 764 -1329 762 -2 0 -78 -45 -169 -98z m881 -834 l75 -322 -779 -3
c-429 -1 -782 0 -785 2 -4 5 54 275 115 539 l25 107 637 0 636 0 76 -323z
m-301 -429 c0 -6 -29 -89 -65 -184 l-65 -173 20 -193 c11 -106 20 -196 20
-200 0 -4 -144 -8 -321 -8 -300 0 -320 1 -316 18 3 9 13 100 23 202 l17 186
-67 177 c-36 98 -66 179 -66 182 0 3 185 5 410 5 307 0 410 -3 410 -12z m534
-230 c88 -67 184 -140 213 -162 l52 -40 -34 -61 c-19 -33 -149 -260 -289 -505
l-254 -445 -114 -3 -113 -3 -137 128 -137 128 -1 72 0 71 138 132 137 132 5
220 5 220 180 118 c99 65 182 119 184 119 2 1 76 -54 165 -121z m-1534 -6
l185 -118 0 -215 0 -215 124 -120 c68 -65 132 -125 142 -132 15 -11 19 -26 19
-81 l0 -68 -140 -132 -140 -131 -114 0 c-79 0 -117 4 -124 13 -15 17 -572 999
-572 1006 1 3 72 57 158 119 86 62 180 130 207 152 28 21 55 39 60 39 6 0 93
-52 195 -117z"/>
<path d="M1463 1476 c-108 -35 -182 -106 -224 -214 -30 -75 -32 -230 -6 -314
31 -103 121 -193 220 -223 156 -48 306 -23 410 67 l38 33 -56 55 -55 55 -28
-18 c-15 -10 -47 -27 -71 -39 -115 -53 -245 30 -260 169 -18 157 49 270 171
289 47 8 108 -10 167 -51 28 -19 53 -35 55 -35 3 0 24 28 47 62 l42 62 -38 33
c-74 64 -117 78 -250 80 -80 2 -134 -2 -162 -11z"/>
<path d="M2595 1290 c-91 -13 -170 -70 -210 -149 -9 -18 -19 -66 -22 -105 -11
-140 47 -248 159 -296 44 -19 65 -22 148 -18 82 3 102 7 141 30 95 56 139 139
139 263 0 194 -145 307 -355 275z m124 -145 c76 -39 81 -209 9 -270 -28 -24
-39 -27 -82 -22 -61 5 -100 43 -111 106 -13 79 19 171 68 191 34 14 85 12 116
-5z"/>
<path d="M3335 1289 c-22 -5 -57 -23 -77 -40 l-38 -30 0 31 0 30 -85 0 -85 0
0 -275 0 -275 85 0 85 0 0 165 c0 181 9 220 53 250 37 24 86 16 111 -18 19
-26 21 -44 24 -213 l3 -184 85 0 86 0 -4 213 c-3 190 -5 217 -24 258 -35 76
-124 111 -219 88z"/>
<path d="M3899 1290 c-88 -15 -163 -70 -205 -150 -27 -50 -27 -219 0 -272 23
-47 79 -102 126 -125 53 -25 194 -30 261 -8 119 40 186 154 177 301 -6 91 -37
156 -96 201 -64 48 -170 70 -263 53z m130 -144 c49 -26 71 -111 51 -194 -17
-72 -47 -97 -117 -97 -49 0 -58 3 -83 32 -83 92 -30 273 79 273 23 0 54 -6 70
-14z"/>
<path d="M4519 1290 c-112 -20 -169 -76 -169 -168 0 -91 33 -130 145 -171 79
-29 105 -47 105 -71 0 -45 -114 -54 -197 -15 l-53 24 0 -74 0 -74 53 -11 c80
-18 212 -10 267 17 86 43 122 140 81 220 -23 46 -59 71 -148 103 -34 12 -70
31 -79 42 -17 18 -17 20 3 39 25 26 102 28 158 5 21 -9 39 -16 41 -16 2 0 4
31 4 69 l0 69 -32 6 c-69 12 -135 14 -179 6z"/>
<path d="M2197 1272 c-15 -10 -34 -27 -42 -38 -14 -18 -14 -17 -15 14 l0 32
-85 0 -85 0 0 -275 0 -275 85 0 85 0 0 155 c0 170 9 211 54 240 18 12 41 16
75 13 28 -1 51 0 51 5 0 4 0 39 0 77 l0 70 -47 0 c-30 0 -59 -7 -76 -18z"/>
</g>
</svg>
